<svg xmlns="http://www.w3.org/2000/svg" width="297mm" height="210mm" viewBox="0 0 297 210">
<style>
  text { font-family: Helvetica, Arial, sans-serif; font-size: 3.5px; fill: #000; }
  .label { font-size: 3px; letter-spacing: 0.2px; }
  .title { font-size: 5px; font-weight: bold; }
  .thick { fill: none; stroke: #000; stroke-width: 0.5; }
  .thin { fill: none; stroke: #000; stroke-width: 0.18; }
  .hidden { fill: none; stroke: #000; stroke-width: 0.25; stroke-dasharray: 1.5 0.8; }
  .centre { fill: none; stroke: #000; stroke-width: 0.18; stroke-dasharray: 4 0.8 0.8 0.8; }
  .ink { fill: #000; }
</style>
<rect x="0" y="0" width="297" height="210" fill="#fff"/>
<rect x="8" y="8" width="281" height="194" class="thick"/>
<rect x="40" y="35" width="120" height="60" class="thick"/>
<circle cx="145" cy="65" r="4.949999999999999" class="thick"/>
<line x1="137.05" y1="65" x2="152.95" y2="65" class="centre"/>
<line x1="145" y1="57.05" x2="145" y2="72.95" class="centre"/>
<line x1="40" y1="34" x2="40" y2="23.5" class="thin"/>
<line x1="160" y1="34" x2="160" y2="23.5" class="thin"/>
<line x1="40" y1="25" x2="160" y2="25" class="thin"/>
<path d="M40,25 L42.5,24.2 L42.5,25.8 Z" class="ink"/>
<path d="M160,25 L157.5,25.8 L157.5,24.2 Z" class="ink"/>
<text x="100" y="23.8" text-anchor="middle">80</text>
<line x1="41" y1="95" x2="28.5" y2="95" class="thin"/>
<line x1="41" y1="35" x2="28.5" y2="35" class="thin"/>
<line x1="30" y1="95" x2="30" y2="35" class="thin"/>
<path d="M30,95 L29.2,92.5 L30.8,92.5 Z" class="ink"/>
<path d="M30,35 L30.8,37.5 L29.2,37.5 Z" class="ink"/>
<text x="28.5" y="65" transform="rotate(-90 28.5 65)" text-anchor="middle">40</text>
<line x1="40" y1="94" x2="40" y2="105.5" class="thin"/>
<line x1="145" y1="94" x2="145" y2="105.5" class="thin"/>
<line x1="40" y1="104" x2="145" y2="104" class="thin"/>
<path d="M40,104 L42.5,103.2 L42.5,104.8 Z" class="ink"/>
<path d="M145,104 L142.5,104.8 L142.5,103.2 Z" class="ink"/>
<text x="92.5" y="108.3" text-anchor="middle">70</text>
<line x1="161" y1="95" x2="170.5" y2="95" class="thin"/>
<line x1="161" y1="65" x2="170.5" y2="65" class="thin"/>
<line x1="169" y1="95" x2="169" y2="65" class="thin"/>
<path d="M169,95 L168.2,92.5 L169.8,92.5 Z" class="ink"/>
<path d="M169,65 L169.8,67.5 L168.2,67.5 Z" class="ink"/>
<text x="172.8" y="80" transform="rotate(-90 172.8 80)" text-anchor="middle">20</text>
<line x1="148.50017856687342" y1="61.49982143312659" x2="160.50017856687342" y2="49.49982143312659" class="thin"/><line x1="160.50017856687342" y1="49.49982143312659" x2="166.50017856687342" y2="49.49982143312659" class="thin"/>
<path d="M148.50017856687342,61.49982143312659 L149.70226009489053,59.166369055210986 L150.833630944789,60.29773990510946 Z" class="ink"/>
<text x="167.50017856687342" y="50.49982143312659">Ø6.6 THRU</text>
<text x="100" y="112" text-anchor="middle" class="label">TOP VIEW</text>
<rect x="40" y="125" width="120" height="9" class="thick"/>
<line x1="140.05" y1="125" x2="140.05" y2="134" class="hidden"/><line x1="149.95" y1="125" x2="149.95" y2="134" class="hidden"/>
<line x1="145" y1="122" x2="145" y2="137" class="centre"/>
<line x1="161" y1="134" x2="170.5" y2="134" class="thin"/>
<line x1="161" y1="125" x2="170.5" y2="125" class="thin"/>
<line x1="169" y1="134" x2="169" y2="125" class="thin"/>
<path d="M169,134 L168.2,131.5 L169.8,131.5 Z" class="ink"/>
<path d="M169,125 L169.8,127.5 L168.2,127.5 Z" class="ink"/>
<text x="172.8" y="129.5" transform="rotate(-90 172.8 129.5)" text-anchor="middle">6</text>
<text x="100" y="144" text-anchor="middle" class="label">FRONT VIEW</text>
<rect x="187" y="152" width="100" height="48" class="thick"/>
<line x1="187" y1="164" x2="287" y2="164" class="thin"/>
<line x1="187" y1="174" x2="287" y2="174" class="thin"/>
<line x1="187" y1="182" x2="287" y2="182" class="thin"/>
<line x1="187" y1="190" x2="287" y2="190" class="thin"/>
<text x="190" y="160.5" class="title">BRACKET</text>
<text x="190" y="170.5">DWG NO. CD-0001   SCALE 3:2</text>
<text x="190" y="179.5">MATERIAL: S275 STEEL</text>
<text x="190" y="187.5">UNITS: mm   TOLERANCES ±0.1</text>
<text x="190" y="196.5">THIRD ANGLE PROJECTION</text>
<path d="M267,193 L273,191.5 L273,198.5 L267,197 Z" class="thin"/>
<circle cx="279" cy="195" r="3.5" class="thin"/><circle cx="279" cy="195" r="2" class="thin"/>
</svg>